<svg width="16" height="17" viewBox="0 0 16 17" fill="none" xmlns="http://www.w3.org/2000/svg">
<g clip-path="url(#clip0)">
<path d="M16 3.53799C15.4113 3.79932 14.7787 3.97532 14.1147 4.05466C14.7927 3.64866 15.3133 3.00532 15.558 2.23866C14.924 2.61466 14.2213 2.88799 13.4733 3.03532C12.8753 2.39732 12.0213 1.99866 11.0773 1.99866C8.958 1.99866 7.40067 3.97599 7.87933 6.02866C5.152 5.89199 2.73333 4.58532 1.114 2.59932C0.254 4.07466 0.668 6.00466 2.12933 6.98199C1.592 6.96466 1.08533 6.81732 0.643333 6.57132C0.607333 8.09199 1.69733 9.51466 3.276 9.83132C2.814 9.95666 2.308 9.98599 1.79333 9.88732C2.21067 11.1913 3.42267 12.14 4.86 12.1667C3.48 13.2487 1.74133 13.732 0 13.5267C1.45267 14.458 3.17867 15.0013 5.032 15.0013C11.1267 15.0013 14.57 9.85399 14.362 5.23732C15.0033 4.77399 15.56 4.19599 16 3.53799Z" fill="white"/>
</g>
<defs>
<clipPath id="clip0">
<rect width="16" height="16" fill="white" transform="translate(0 0.5)"/>
</clipPath>
</defs>
</svg>
