<svg width="16" height="17" viewBox="0 0 16 17" fill="none" xmlns="http://www.w3.org/2000/svg">
<g clip-path="url(#clip0)">
<path d="M8 16.5C3.58912 16.5 0 12.9113 0 8.5C0 4.08874 3.58912 0.500004 8 0.500004C12.4109 0.500004 16 4.08874 16 8.5C16 12.9113 12.4117 16.5 8 16.5ZM8 1.56826C4.17707 1.56656 1.06667 4.67705 1.06667 8.5C1.06667 12.323 4.17707 15.4334 8 15.4334C11.8229 15.4334 14.9333 12.3234 14.9333 8.5C14.9333 4.67662 11.8234 1.56656 8 1.56656V1.56826Z" fill="white"/>
<path d="M8.13357 2.62586V8.23593C8.24969 8.26817 8.3502 8.34139 8.41647 8.44204C8.48274 8.54269 8.51029 8.66394 8.49402 8.78333C8.47775 8.90273 8.41876 9.01219 8.32797 9.09144C8.23718 9.17068 8.12075 9.21435 8.00024 9.21435C7.87972 9.21435 7.76329 9.17068 7.6725 9.09144C7.58172 9.01219 7.52272 8.90273 7.50645 8.78333C7.49018 8.66394 7.51773 8.54269 7.58401 8.44204C7.65028 8.34139 7.75078 8.26817 7.8669 8.23593V2.62586C7.52557 3.49916 6.57922 5.78969 5.72461 6.75812L6.18669 13.5482C6.18669 13.5482 6.57794 14.0815 8.00002 14.0815C9.42211 14.0815 9.81336 13.5482 9.81336 13.5482L10.2754 6.75812C9.42082 5.78969 8.47576 3.49916 8.13357 2.62586Z" fill="white"/>
</g>
<defs>
<clipPath id="clip0">
<rect width="16" height="16" fill="white" transform="translate(0 0.5)"/>
</clipPath>
</defs>
</svg>
