<svg width="16" height="16" viewBox="0 0 16 16" fill="none" xmlns="http://www.w3.org/2000/svg">
<path fill-rule="evenodd" clip-rule="evenodd" d="M7.01139 7.04498H5.14682C4.92654 7.04498 4.85321 7.03341 4.74 6.99926C4.43524 6.90782 4.19767 6.59907 4.19767 6.23304C4.19767 5.867 4.43524 5.55826 4.74 5.46682C4.85321 5.43239 4.92654 5.4211 5.14682 5.4211H6.35585V4.19741C6.35585 3.97418 6.36728 3.89995 6.4013 3.78566C6.49164 3.47098 6.79669 3.23646 7.15806 3.23646C7.51971 3.23646 7.82503 3.47663 7.91537 3.78566C7.94911 3.89995 7.96054 3.97418 7.96054 4.19741V6.08431C7.96054 6.19861 7.96055 6.31319 7.93796 6.41592C7.87578 6.70209 7.62148 6.95918 7.33902 7.02212C7.23753 7.04498 7.12432 7.04498 7.01139 7.04498ZM13.0002 13.9757H3.00008V5.06071C3.00008 4.94641 3.03967 4.84933 3.11858 4.76918L5.71202 2.14428C5.79093 2.06442 5.88713 2.02434 6.00006 2.02434H13.0002V13.9757ZM1.48601 3.56271C1.22028 3.83138 1.04545 4.16891 1.01115 4.54623C1.00557 4.60917 1 4.7006 1 4.79204V14.8734C1 15.0049 1.00557 15.0735 1.01115 15.1251C1.0566 15.5538 1.44056 15.9427 1.86439 15.9884C1.91541 15.9941 1.98317 16 2.1131 16H13.8872C14.0171 16 14.0849 15.9941 14.1359 15.9884C14.5594 15.9427 14.9437 15.5538 14.9889 15.1251C14.9947 15.0735 15 15.0049 15 14.8734V1.12661C15 0.995095 14.9947 0.926518 14.9889 0.874872C14.9437 0.446185 14.5594 0.0572898 14.1359 0.0115707C14.0849 0.00592624 14.0171 0 13.8872 0H5.73461C5.64427 0 5.55364 0.00592624 5.49174 0.0115707C5.11866 0.0457188 4.78546 0.222951 4.51973 0.491904L1.48601 3.56271Z" fill="white"/>
</svg>
